name C:\Users\u0150099\Documents\master_thesis\3dpredictsim\Results\debug\Fal_s1_mtp_sd_MTPm_k1_d05_ig21.mot
datacolumns 126
datarows 4
range 0.50962025 0.54019746
endheader
time	pelvis_tilt	pelvis_list	pelvis_rotation	pelvis_tx	pelvis_ty	pelvis_tz	hip_flexion_l	hip_adduction_l	hip_rotation_l	hip_flexion_r	hip_adduction_r	hip_rotation_r	knee_angle_l	knee_angle_r	ankle_angle_l	ankle_angle_r	subtalar_angle_l	subtalar_angle_r	mtj_angle_l	mtj_angle_r	mtp_angle_l	mtp_angle_r	lumbar_extension	lumbar_bending	lumbar_rotation	arm_flex_l	arm_add_l	arm_rot_l	arm_flex_r	arm_add_r	arm_rot_r	elbow_flex_l	elbow_flex_r	glut_med1_l/activation	glut_med2_l/activation	glut_med3_l/activation	glut_min1_l/activation	glut_min2_l/activation	glut_min3_l/activation	semimem_l/activation	semiten_l/activation	bifemlh_l/activation	bifemsh_l/activation	sar_l/activation	add_long_l/activation	add_brev_l/activation	add_mag1_l/activation	add_mag2_l/activation	add_mag3_l/activation	tfl_l/activation	pect_l/activation	grac_l/activation	glut_max1_l/activation	glut_max2_l/activation	glut_max3_l/activation	iliacus_l/activation	psoas_l/activation	quad_fem_l/activation	gem_l/activation	peri_l/activation	rect_fem_l/activation	vas_med_l/activation	vas_int_l/activation	vas_lat_l/activation	med_gas_l/activation	lat_gas_l/activation	soleus_l/activation	tib_post_l/activation	flex_dig_l/activation	flex_hal_l/activation	tib_ant_l/activation	per_brev_l/activation	per_long_l/activation	per_tert_l/activation	ext_dig_l/activation	ext_hal_l/activation	ercspn_l/activation	intobl_l/activation	extobl_l/activation	glut_med1_r/activation	glut_med2_r/activation	glut_med3_r/activation	glut_min1_r/activation	glut_min2_r/activation	glut_min3_r/activation	semimem_r/activation	semiten_r/activation	bifemlh_r/activation	bifemsh_r/activation	sar_r/activation	add_long_r/activation	add_brev_r/activation	add_mag1_r/activation	add_mag2_r/activation	add_mag3_r/activation	tfl_r/activation	pect_r/activation	grac_r/activation	glut_max1_r/activation	glut_max2_r/activation	glut_max3_r/activation	iliacus_r/activation	psoas_r/activation	quad_fem_r/activation	gem_r/activation	peri_r/activation	rect_fem_r/activation	vas_med_r/activation	vas_int_r/activation	vas_lat_r/activation	med_gas_r/activation	lat_gas_r/activation	soleus_r/activation	tib_post_r/activation	flex_dig_r/activation	flex_hal_r/activation	tib_ant_r/activation	per_brev_r/activation	per_long_r/activation	per_tert_r/activation	ext_dig_r/activation	ext_hal_r/activation	ercspn_r/activation	intobl_r/activation	extobl_r/activation	
          0.50962025	         -2.93017651	          2.35246742	         -3.11879554	          0.67779493	          0.90695232	          0.00326615	         27.01079262	          4.59653808	         -0.21022565	        -16.72154229	          0.20847891	          6.15676593	         -5.69785222	         -4.07395563	          4.33902923	          4.19966548	         -9.99351985	          5.81907188	         41.57884112	         48.00953043	         -3.33441888	         -1.54465310	          2.22216370	         -4.74758783	        -13.45439479	          5.99229406	          4.44761444	        -13.63214076	         19.32489831	         23.35305629	         32.41699883	         86.51662706	         86.51662706	          0.07281952	          0.05849357	          0.05000049	          0.05849337	          0.05000812	          0.05000080	          0.11067115	          0.06843021	          0.28095869	          0.05000007	          0.05000008	          0.17542028	          0.23532591	          0.25578242	          0.23326596	          0.15159708	          0.05000019	          0.05000173	          0.12825466	          0.08005603	          0.10956845	          0.12301714	          0.05000003	          0.05000004	          0.07963395	          0.05000049	          0.05000022	          0.05000017	          0.09406870	          0.09655549	          0.07982445	          0.05000003	          0.05000007	          0.06630130	          0.05273494	          0.05000048	          0.05000126	          0.41465803	          0.31897293	          0.21538919	          0.17166779	          0.45209015	          0.35865159	          0.09400138	          0.09876667	          0.09941384	          0.31788288	          0.10956329	          0.08269476	          0.50009480	          0.27788294	          0.12967400	          0.05000098	          0.05000016	          0.05000010	          0.08005459	          0.12817541	          0.05000003	          0.05000005	          0.05000010	          0.05000033	          0.05000030	          0.69480956	          0.05000018	          0.05000024	          0.05849468	          0.05487867	          0.05000094	          0.37124392	          0.71203625	          0.05000019	          0.05849385	          0.08005461	          0.19569872	          0.05000040	          0.05000037	          0.05000036	          0.31031269	          0.44143926	          0.36427376	          0.32129896	          0.34632729	          0.46197157	          0.06062846	          0.05000016	          0.09091105	          0.05000008	          0.05393159	          0.07941860	          0.05000000	          0.05000000	          0.05000000	
          0.51981265	         -2.92827794	          2.56115972	         -3.40599591	          0.69374181	          0.90596282	          0.00301900	         26.22836318	          5.07343930	         -0.01441510	        -16.63713930	         -0.15552872	          6.01338518	         -4.69416345	         -5.95646819	          3.95044166	          3.71071904	        -10.15500299	          6.54173270	         41.71480481	         47.53991414	         -3.14149594	         -1.81381932	          2.31576556	         -5.36491932	        -13.45154379	          5.69518916	          4.06726395	        -13.58759515	         19.15699469	         22.72002852	         33.75166183	         86.51662706	         86.51662706	          0.14887763	          0.05000009	          0.05000025	          0.05000007	          0.05000008	          0.05000025	          0.10594611	          0.05849374	          0.26445017	          0.05000005	          0.05000037	          0.14994847	          0.31080436	          0.23578752	          0.23913512	          0.17531551	          0.05000019	          0.08077087	          0.10963157	          0.06843159	          0.11676006	          0.13237975	          0.05000007	          0.05000005	          0.23441637	          0.05000032	          0.05000009	          0.05939713	          0.19641599	          0.20852703	          0.16211868	          0.05000007	          0.05000009	          0.05849364	          0.05000003	          0.05000017	          0.05000015	          0.45844861	          0.34645176	          0.21402919	          0.16942845	          0.48844356	          0.40845422	          0.08293203	          0.08442510	          0.08497830	          0.34987927	          0.09365398	          0.07068694	          0.42748123	          0.23753252	          0.11084448	          0.05000025	          0.05000008	          0.05000006	          0.06843015	          0.10956354	          0.06749777	          0.05000010	          0.05000011	          0.05000029	          0.05000012	          0.68730352	          0.05000256	          0.05000049	          0.05000218	          0.05000055	          0.05000029	          0.31733689	          0.68438667	          0.05000018	          0.05000051	          0.06843016	          0.16728200	          0.05000021	          0.05000018	          0.05000018	          0.26525323	          0.39262851	          0.34876892	          0.31472181	          0.34807543	          0.46362240	          0.05182481	          0.05198378	          0.10666194	          0.05000006	          0.05000001	          0.06788650	          0.05000002	          0.05000000	          0.05000000	
          0.53000506	         -2.92252141	          2.76665393	         -3.67671168	          0.70999193	          0.90503113	          0.00275170	         25.39805125	          5.54312893	          0.21439634	        -16.44378086	         -0.51754021	          5.87786715	         -4.21718174	         -8.03630076	          3.31366091	          3.02901326	        -10.32153066	          7.25619491	         41.91232847	         47.01708865	         -2.92603205	         -2.08338306	          2.40041302	         -6.01459234	        -13.47236979	          5.60498192	          3.59560319	        -13.54815217	         18.93544709	         22.11903663	         35.13750258	         86.51662706	         86.51662706	          0.12725962	          0.05000055	          0.05000009	          0.05849350	          0.05000160	          0.05000017	          0.09056205	          0.05000013	          0.22605070	          0.05000004	          0.05000010	          0.12817503	          0.29546630	          0.40144154	          0.33544932	          0.16122745	          0.05000004	          0.06904290	          0.09371289	          0.05849530	          0.13449955	          0.18509297	          0.05000004	          0.05000006	          0.54415804	          0.13547234	          0.05849403	          0.06843028	          0.24875170	          0.26876803	          0.20458164	          0.05000000	          0.05000000	          0.05000000	          0.05734623	          0.05000032	          0.05000048	          0.51713690	          0.29614473	          0.21748748	          0.29437566	          0.51608045	          0.36821550	          0.07088975	          0.07216601	          0.07263889	          0.29907456	          0.08005480	          0.06042273	          0.36540823	          0.20304124	          0.09474913	          0.05000175	          0.05000011	          0.05000008	          0.05849365	          0.09365422	          0.14060932	          0.08586658	          0.05000303	          0.05000383	          0.05001069	          0.68798842	          0.05003258	          0.05000054	          0.05000089	          0.05000067	          0.05000075	          0.27125748	          0.60490518	          0.05000007	          0.05000047	          0.05849367	          0.14299157	          0.14130975	          0.14994894	          0.12342458	          0.22673670	          0.33561627	          0.30390326	          0.30629891	          0.33274265	          0.45941569	          0.05000000	          0.05000004	          0.10376815	          0.05000004	          0.05000001	          0.05802895	          0.06625002	          0.06769552	          0.05000000	
          0.54019746	         -2.91349335	          2.98038222	         -3.92866954	          0.72647812	          0.90417566	          0.00249801	         24.52170082	          5.93448946	          0.48516523	        -16.14857868	         -0.88318571	          5.73325076	         -4.29147900	        -10.27941096	          2.55340559	          2.11399420	        -10.50863310	          7.93362754	         42.13140730	         46.42574034	         -2.69318142	         -2.36413922	          2.47201435	         -6.68026739	        -13.51953336	          5.70482902	          3.04810883	        -13.50932683	         18.68651518	         21.53503410	         36.55999072	         86.51662706	         86.51662706	          0.39248814	          0.05000002	          0.22682259	          0.05000003	          0.05000003	          0.05000008	          0.11060851	          0.05000061	          0.20148744	          0.05000001	          0.05000007	          0.10956319	          0.35980699	          0.34314973	          0.28674015	          0.18140353	          0.05000012	          0.06843061	          0.15073232	          0.05000148	          0.15762981	          0.15821650	          0.05000002	          0.05000002	          0.46514268	          0.11580088	          0.05000042	          0.05849375	          0.21263140	          0.22974122	          0.17487512	          0.05849369	          0.05849376	          0.05849368	          0.05849367	          0.05849361	          0.05849363	          0.44204520	          0.34145231	          0.19153530	          0.26307684	          0.55592800	          0.31474818	          0.06059609	          0.06262788	          0.06209125	          0.36124921	          0.06843032	          0.05164895	          0.31235149	          0.17355832	          0.08099094	          0.05000117	          0.05000039	          0.05000026	          0.05000006	          0.08005504	          0.18582229	          0.14127254	          0.05000278	          0.05001233	          0.13141354	          0.68925318	          0.05000109	          0.05000030	          0.05000141	          0.05000096	          0.05000096	          0.23186910	          0.57468805	          0.05000005	          0.05000013	          0.05000003	          0.12222825	          0.12079147	          0.12817567	          0.10550285	          0.19381302	          0.28688256	          0.25977448	          0.28067912	          0.28442902	          0.39522932	          0.05000000	          0.05000054	          0.13704875	          0.05000003	          0.05000000	          0.05000005	          0.06384355	          0.05786569	          0.05000007	
